<svg width="22" height="24" viewBox="0 0 22 24" fill="none" xmlns="http://www.w3.org/2000/svg">
<path d="M2.27819 9.70303C2.32191 9.15828 2.56921 8.64998 2.97085 8.27937C3.37248 7.90875 3.89898 7.70301 4.44548 7.70313H17.5514C18.0979 7.70301 18.6244 7.90875 19.026 8.27937C19.4277 8.64998 19.675 9.15828 19.7187 9.70303L20.5915 20.5721C20.6155 20.8712 20.5773 21.172 20.4793 21.4557C20.3814 21.7393 20.2257 21.9996 20.0223 22.2201C19.8188 22.4406 19.5718 22.6167 19.297 22.7371C19.0221 22.8575 18.7253 22.9197 18.4253 22.9198H3.57161C3.27154 22.9197 2.97474 22.8575 2.69989 22.7371C2.42504 22.6167 2.1781 22.4406 1.97461 22.2201C1.77113 21.9996 1.6155 21.7393 1.51754 21.4557C1.41958 21.172 1.3814 20.8712 1.40541 20.5721L2.27819 9.70303V9.70303Z" stroke="#FBF9FF" stroke-linecap="round" stroke-linejoin="round"/>
<path d="M15.3515 10.9794V5.54489C15.3515 4.39183 14.8934 3.28599 14.0781 2.47066C13.2628 1.65532 12.1569 1.19727 11.0039 1.19727C9.85081 1.19727 8.74498 1.65532 7.92964 2.47066C7.1143 3.28599 6.65625 4.39183 6.65625 5.54489V10.9794" stroke="#FBF9FF" stroke-linecap="round" stroke-linejoin="round"/>
</svg>
