<svg width="22" height="14" viewBox="0 0 22 14" fill="none" xmlns="http://www.w3.org/2000/svg">
<path d="M4.50397 2.63448C8.09163 -0.878161 13.9085 -0.878161 17.4961 2.63448L17.928 3.05722C17.9706 3.09852 18.0044 3.14795 18.0275 3.20257C18.0507 3.2572 18.0626 3.31591 18.0626 3.37522C18.0626 3.43454 18.0507 3.49325 18.0275 3.54787C18.0044 3.6025 17.9706 3.65193 17.928 3.69323L16.451 5.13941C16.4075 5.18165 16.3492 5.20528 16.2886 5.20528C16.2279 5.20528 16.1697 5.18165 16.1262 5.13941L15.5319 4.55764C13.0291 2.1071 8.97102 2.1071 6.46823 4.55764L5.83191 5.18066C5.7884 5.2229 5.73015 5.24653 5.66951 5.24653C5.60887 5.24653 5.55061 5.2229 5.50711 5.18066L4.03006 3.73448C3.98749 3.69318 3.95364 3.64375 3.93053 3.58912C3.90741 3.5345 3.8955 3.47579 3.8955 3.41647C3.8955 3.35716 3.90741 3.29845 3.93053 3.24382C3.95364 3.18919 3.98749 3.13977 4.03006 3.09847L4.50397 2.63448ZM20.5509 5.62524L21.8654 6.91239C21.908 6.95368 21.9418 7.0031 21.965 7.05773C21.9881 7.11235 22 7.17107 22 7.23039C22 7.28971 21.9881 7.34843 21.965 7.40305C21.9418 7.45768 21.908 7.50711 21.8654 7.5484L15.9379 13.3521C15.8509 13.4366 15.7344 13.4838 15.6131 13.4838C15.4919 13.4838 15.3754 13.4366 15.2883 13.3521L11.0813 9.23307C11.0596 9.21194 11.0304 9.20013 11.0001 9.20013C10.9698 9.20013 10.9407 9.21194 10.9189 9.23307L6.7119 13.3519C6.62489 13.4364 6.50838 13.4837 6.3871 13.4837C6.26582 13.4837 6.14931 13.4364 6.0623 13.3519L0.134559 7.54855C0.0919851 7.50725 0.058138 7.45782 0.035024 7.40319C0.0119101 7.34857 0 7.28986 0 7.23054C0 7.17123 0.0119101 7.11252 0.035024 7.05789C0.058138 7.00327 0.0919851 6.95384 0.134559 6.91254L1.4492 5.62539C1.53622 5.54091 1.65273 5.49366 1.77401 5.49366C1.89529 5.49366 2.0118 5.54091 2.09881 5.62539L6.30598 9.7441C6.32773 9.76522 6.35686 9.77704 6.38718 9.77704C6.4175 9.77704 6.44663 9.76522 6.46838 9.7441L10.6752 5.62524C10.7623 5.54076 10.8788 5.4935 11 5.4935C11.1213 5.4935 11.2378 5.54076 11.3248 5.62524L15.5319 9.74426C15.5536 9.76538 15.5827 9.77719 15.6131 9.77719C15.6434 9.77719 15.6725 9.76538 15.6943 9.74426L19.9013 5.62539C19.9883 5.54091 20.1048 5.49366 20.2261 5.49366C20.3474 5.49366 20.4639 5.54091 20.5509 5.62539V5.62524Z" fill="#67646D"/>
</svg>
