<svg width="22" height="21" viewBox="0 0 22 21" fill="none" xmlns="http://www.w3.org/2000/svg">
<path d="M20.7204 0.615479L12.4609 6.59702L14.0009 3.07086L20.7204 0.615479Z" fill="#67646D" stroke="#67646D" stroke-width="0.25" stroke-linecap="round" stroke-linejoin="round"/>
<path d="M1.67059 0.615479L9.85459 6.64625L8.39002 3.07702L1.67059 0.615479ZM17.7432 14.4801L15.5432 17.7662L20.2512 19.0339L21.5963 14.5539L17.7432 14.4801ZM0.796875 14.5539L2.13573 19.0339L6.83116 17.7662L4.64373 14.4801L0.796875 14.5539Z" fill="#67646D" stroke="#67646D" stroke-width="0.25" stroke-linecap="round" stroke-linejoin="round"/>
<path d="M6.58087 8.92935L5.27344 10.8617L9.92487 11.0709L9.77401 6.16628L6.58087 8.93551V8.92935ZM15.8083 8.93551L12.5649 6.10474L12.458 11.0709L17.1094 10.8617L15.8083 8.93551ZM6.83229 17.7663L9.65458 16.437L7.22829 14.5909L6.83229 17.7663ZM12.7409 16.4309L15.5443 17.7663L15.1672 14.5847L12.7409 16.4309Z" fill="#67646D" stroke="#67646D" stroke-width="0.25" stroke-linecap="round" stroke-linejoin="round"/>
<path d="M15.5479 17.7662L12.7445 16.437L12.9708 18.2216L12.9457 18.9786L15.5479 17.7662ZM6.83594 17.7662L9.45079 18.9786L9.43194 18.2216L9.65822 16.437L6.83594 17.7662Z" fill="#FBF9FF" stroke="#FBF9FF" stroke-width="0.25" stroke-linecap="round" stroke-linejoin="round"/>
<path d="M9.48978 13.4031L7.16406 12.7385L8.81092 12.0001L9.49606 13.4031H9.48978ZM12.8903 13.4031L13.5818 11.9939L15.2349 12.7324L12.8903 13.4093V13.4031Z" fill="#100E11" stroke="#100E11" stroke-width="0.25" stroke-linecap="round" stroke-linejoin="round"/>
<path d="M6.83587 17.7662L7.24444 14.48L4.64844 14.5539L6.83587 17.7662ZM15.1519 14.48L15.5479 17.7662L17.7479 14.5539L15.1519 14.48ZM17.1193 10.8616L12.4679 11.0708L12.8953 13.4093L13.5867 11.9939L15.2399 12.7323L17.1193 10.8616ZM7.16901 12.7385L8.81587 12L9.50101 13.4031L9.93472 11.0646L5.28329 10.8616L7.16901 12.7385Z" fill="#67646D" stroke="#67646D" stroke-width="0.25" stroke-linecap="round" stroke-linejoin="round"/>
<path d="M5.28125 10.8616L7.22982 14.5847L7.16696 12.7385L5.28125 10.8616ZM15.2378 12.7385L15.1624 14.5847L17.111 10.8616L15.2378 12.7385ZM9.93268 11.0708L9.49268 13.4093L10.0458 16.1662L10.1715 12.5293L9.93268 11.0708ZM12.4595 11.0708L12.2332 12.5231L12.3464 16.1662L12.8932 13.4031L12.4595 11.0646V11.0708Z" fill="#67646D" stroke="#67646D" stroke-width="0.25" stroke-linecap="round" stroke-linejoin="round"/>
<path d="M12.8888 13.4031L12.342 16.1662L12.738 16.437L15.158 14.5908L15.2334 12.7385L12.8888 13.4031ZM7.16254 12.7385L7.22539 14.5847L9.65168 16.4308L10.0414 16.1662L9.49454 13.4031L7.15625 12.7385H7.16254Z" fill="#333333" stroke="#333333" stroke-width="0.25" stroke-linecap="round" stroke-linejoin="round"/>
<path d="M12.9519 18.9784L12.9708 18.2215L12.7571 18.0492H9.63937L9.43194 18.2215L9.45079 18.9784L6.83594 17.7661L7.75365 18.5046L9.60794 19.7538H12.7822L14.6428 18.4984L15.5479 17.7661L12.9457 18.9784H12.9519Z" fill="#FBF9FF" stroke="#FBF9FF" stroke-width="0.25" stroke-linecap="round" stroke-linejoin="round"/>
<path d="M12.7423 16.4309L12.3463 16.1663H10.0457L9.65597 16.437L9.42969 18.2216L9.63712 18.0493H12.7548L12.9685 18.2216L12.7423 16.437V16.4309Z" fill="#292929" stroke="#292929" stroke-width="0.25" stroke-linecap="round" stroke-linejoin="round"/>
<path d="M21.0661 6.98471L21.7576 3.6924L20.7141 0.615479L12.7313 6.40009L15.805 8.92932L20.1421 10.1662L21.0976 9.07702L20.6827 8.78163L21.3427 8.19086L20.8399 7.80932L21.4999 7.31702L21.0599 6.98471H21.0661ZM0.625 3.68625L1.329 6.98471L0.876429 7.31086L1.549 7.80317L1.04614 8.19086L1.69986 8.78163L1.285 9.07702L2.24043 10.1662L6.57757 8.93548L9.65129 6.39394L1.66843 0.615479L0.625 3.68625Z" fill="#333333" stroke="#333333" stroke-width="0.25" stroke-linecap="round" stroke-linejoin="round"/>
<path d="M20.1443 10.1662L15.8072 8.93542L17.1146 10.8616L15.166 14.5846L17.7432 14.5539H21.5963L20.1443 10.1662ZM6.57973 8.92926L2.24259 10.1662L0.796875 14.5539H4.65002L7.22716 14.5846L5.27859 10.8616L6.58602 8.92926H6.57973ZM12.4569 11.0708L12.7397 6.39388L13.9969 3.0708H8.39002L9.64716 6.39388L9.93002 11.0708L10.0369 12.5354V16.1662H12.3437L12.3563 12.5354L12.4569 11.0708Z" fill="#333333" stroke="#333333" stroke-width="0.25" stroke-linecap="round" stroke-linejoin="round"/>
</svg>
